# xmcd
#
# Track frame offsets:
#	150
#	15268
#	30079
#	43536
#	58302
#	75607
#	87346
#	100650
#	116910
#	133292
#	145417
#	154656
#	164852
#	178183
#	194125
#	205037
#	217882
#	231285
#	241676
#	253898
#	269341
#	282880
#	298443
#
# Disc length: 4210 seconds
#
# Revision: 4
# Processed by: cddbd v1.5.1PL0 Copyright (c) Steve Scherf et al.
# Submitted via: audiograbber 1.83.01
#
DISCID=5b107017
DTITLE=Stan Kenton - Lover Man - Disc 2
DYEAR=2000
DGENRE=Big Band
TTITLE0=Two Moose In A Caboose
TTITLE1=Body And Soul
TTITLE2=I Never Thought I'd Sing The Blues
TTITLE3=Solitude
TTITLE4=On The Sunny Side Of The Street
TTITLE5=Begin The Beguine
TTITLE6=Scotch And Water
TTITLE7=Yesterdays
TTITLE8=Easy Street
TTITLE9=No Baby, Nobody But You
TTITLE10=Lover
TTITLE11=Everybody Swing
TTITLE12=I Got The Sun In The Morning
TTITLE13=It's Never Too Late To Pray
TTITLE14=Who's Got A Tent For Rent
TTITLE15=Tea For Two
TTITLE16=Come Rain Or Come Shine
TTITLE17=Reed Rapture
TTITLE18=One Twenty
TTITLE19=Lover Man
TTITLE20=Cocktails For Two
TTITLE21=I Surrender Dear
TTITLE22=End Of The World
EXTD=History 20.1911-HI (P) 1997\n\nRecordings by the greatest musicians of the
EXTD=Big Band Era 1929 - 
EXTT0=
EXTT1=
EXTT2=
EXTT3=
EXTT4=
EXTT5=
EXTT6=
EXTT7=
EXTT8=
EXTT9=
EXTT10=
EXTT11=
EXTT12=
EXTT13=
EXTT14=
EXTT15=
EXTT16=
EXTT17=
EXTT18=
EXTT19=
EXTT20=
EXTT21=
EXTT22=
PLAYORDER=
